<svg xmlns="http://www.w3.org/2000/svg" width="32" height="48" viewBox="0 0 32 48" fill="none">
  <path d="M19.4351 26.0629H18.7124L18.4563 25.8159C19.3528 24.773 19.8925 23.4191 19.8925 21.9463C19.8925 18.6621 17.2304 16 13.9463 16C10.6621 16 8 18.6621 8 21.9463C8 25.2304 10.6621 27.8925 13.9463 27.8925C15.4191 27.8925 16.773 27.3528 17.8159 26.4563L18.0629 26.7124V27.4351L22.6369 32L24 30.6369L19.4351 26.0629ZM13.9463 26.0629C11.6684 26.0629 9.82962 24.2241 9.82962 21.9463C9.82962 19.6684 11.6684 17.8296 13.9463 17.8296C16.2241 17.8296 18.0629 19.6684 18.0629 21.9463C18.0629 24.2241 16.2241 26.0629 13.9463 26.0629Z" fill="#ADBFDF"/>
</svg>